<?xml version="1.0" standalone="no"?>
<!DOCTYPE svg PUBLIC "-//W3C//DTD SVG 20010904//EN"
 "http://www.w3.org/TR/2001/REC-SVG-20010904/DTD/svg10.dtd">
<svg version="1.0" xmlns="http://www.w3.org/2000/svg"
 width="700.000000pt" height="700.000000pt" viewBox="0 0 700.000000 700.000000"
 preserveAspectRatio="xMidYMid meet">
<metadata>
Created by potrace 1.11, written by Peter Selinger 2001-2013
</metadata>
<g transform="translate(0.000000,700.000000) scale(0.100000,-0.100000)"
fill="#000000" stroke="none">
<path d="M3278 6996 c-1 -2 -41 -6 -88 -10 -87 -7 -105 -9 -225 -27 -116 -18
-123 -19 -192 -35 -227 -51 -373 -95 -553 -166 -178 -71 -486 -224 -531 -264
-8 -8 -19 -14 -23 -14 -12 0 -220 -144 -316 -219 -440 -341 -825 -830 -1035
-1311 -25 -58 -50 -114 -55 -125 -45 -93 -150 -427 -176 -560 -2 -11 -10 -54
-19 -95 -29 -147 -35 -193 -52 -370 -15 -163 -8 -592 12 -711 2 -13 6 -46 9
-74 9 -78 23 -156 51 -285 50 -234 150 -517 268 -761 56 -115 190 -354 207
-369 3 -3 31 -43 62 -90 52 -78 214 -285 263 -336 114 -121 218 -224 278 -278
507 -457 1187 -775 1842 -861 22 -2 56 -7 75 -10 186 -26 697 -27 837 -1 17 3
104 16 148 21 128 17 401 87 588 152 443 153 859 402 1205 718 82 75 238 235
287 295 21 25 41 47 45 50 17 12 179 233 245 335 219 336 406 779 481 1140 16
79 54 301 59 350 4 33 9 71 11 85 9 46 11 524 4 605 -12 128 -21 202 -25 227
-3 13 -8 43 -11 68 -3 25 -9 61 -14 80 -5 19 -12 51 -15 70 -13 77 -66 272
-106 390 -373 1110 -1276 1962 -2404 2269 -106 29 -282 67 -355 76 -19 3 -46
7 -60 10 -13 2 -52 7 -86 11 -33 3 -74 8 -90 10 -32 5 -540 14 -546 10z m550
-551 c18 -2 77 -11 130 -20 53 -8 108 -17 122 -20 14 -3 34 -7 45 -9 97 -19
360 -98 440 -131 17 -7 55 -23 85 -35 90 -36 302 -145 392 -201 83 -52 239
-157 248 -168 3 -3 39 -33 80 -66 307 -242 593 -600 779 -973 76 -151 182
-422 206 -528 2 -10 16 -68 30 -129 55 -233 70 -380 70 -675 0 -311 -21 -475
-95 -757 -67 -254 -155 -462 -314 -748 -36 -64 -191 -288 -231 -331 -5 -6 -30
-36 -55 -67 -53 -66 -270 -282 -355 -354 -246 -209 -573 -398 -886 -513 -136
-50 -394 -121 -486 -133 -23 -4 -52 -8 -65 -11 -98 -22 -236 -31 -468 -31
-301 0 -430 14 -689 76 -511 122 -988 382 -1354 738 -48 47 -90 87 -95 90 -13
10 -137 154 -194 226 -269 338 -484 800 -563 1205 -8 41 -17 86 -20 100 -3 14
-8 41 -11 60 -3 19 -7 46 -10 60 -27 162 -26 623 2 810 5 35 30 177 38 215 39
188 133 465 223 652 110 231 317 542 458 689 177 186 238 244 368 347 106 85
280 207 295 207 6 0 12 4 14 8 5 14 225 130 353 187 196 88 492 175 690 205
44 6 89 13 100 16 11 2 58 7 105 10 47 4 87 8 90 11 6 6 485 -5 528 -12z"/>
<path d="M3467 5654 c-1 -1 -58 -4 -126 -8 -67 -3 -126 -8 -130 -10 -3 -2 -26
-7 -51 -10 -344 -49 -711 -210 -994 -436 -408 -325 -694 -797 -782 -1290 -2
-14 -6 -36 -9 -50 -5 -25 -12 -79 -20 -155 -6 -48 -6 -338 -1 -380 2 -16 7
-57 10 -90 40 -361 208 -758 453 -1069 77 -97 251 -270 348 -344 44 -34 85
-66 92 -72 60 -50 393 -230 426 -230 7 0 17 -4 23 -9 14 -14 157 -59 284 -91
135 -33 173 -40 315 -55 78 -9 362 -5 436 5 159 22 142 19 249 43 214 49 484
163 672 284 330 213 622 546 788 899 73 154 147 385 165 514 4 24 8 47 10 50
2 3 6 34 10 70 4 36 9 79 11 95 5 42 5 322 0 370 -11 107 -18 153 -36 238
-101 488 -339 894 -716 1217 -375 323 -833 496 -1357 513 -37 2 -69 2 -70 1z"/>
</g>
</svg>
