<svg width="50" height="41" viewBox="0 0 50 41" fill="none" xmlns="http://www.w3.org/2000/svg">
<path d="M23.4737 0.724592L10.6316 10.5667H2.94737C1.31579 10.5667 0 11.8825 0 13.5141V27.4088C0 29.0404 1.31579 30.3562 2.94737 30.3562H10.6316L23.4737 40.1983C25.7368 41.9351 28.9474 40.3562 28.9474 37.4614V3.4088C29 0.566698 25.7368 -1.01225 23.4737 0.724592Z" fill="#FF4040"/>
<path d="M47.4737 17.9352H39.8421C38.4211 17.9352 37.3158 19.0404 37.3158 20.4615C37.3158 21.8825 38.4211 22.9878 39.8421 22.9878H47.4737C48.8947 22.9878 50 21.8825 50 20.4615C50 19.0404 48.8947 17.9352 47.4737 17.9352Z" fill="#FF4040"/>
<path d="M35.8421 13.4088C36.4737 13.4088 37.1579 13.1457 37.6316 12.672L43.0526 7.25094C44.0526 6.25094 44.0526 4.672 43.0526 3.672C42.0526 2.672 40.4737 2.672 39.4737 3.672L34.0526 9.09305C33.0526 10.093 33.0526 11.672 34.0526 12.672C34.5263 13.1457 35.2105 13.4088 35.8421 13.4088Z" fill="#FF4040"/>
<path d="M37.6316 28.2509C36.6316 27.2509 35.0526 27.2509 34.0526 28.2509C33.0526 29.2509 33.0526 30.8298 34.0526 31.8298L39.4737 37.2509C39.9474 37.7245 40.6316 37.9877 41.2631 37.9877C41.8947 37.9877 42.5789 37.7245 43.0526 37.2509C44.0526 36.2509 44.0526 34.6719 43.0526 33.6719L37.6316 28.2509Z" fill="#FF4040"/>
</svg>
